<mxfile host="app.diagrams.net" modified="2021-12-28T14:08:49.707Z" agent="5.0 (Macintosh; Intel Mac OS X 10_15_7) AppleWebKit/537.36 (KHTML, like Gecko) Chrome/96.0.4664.110 Safari/537.36" etag="DYJp4Uf-Honm0YUzBVra" version="16.1.0" type="github">
  <diagram id="379cGoouO3vM-EUqnXvb" name="第 1 页">
    <mxGraphModel dx="1426" dy="746" grid="1" gridSize="10" guides="1" tooltips="1" connect="1" arrows="1" fold="1" page="1" pageScale="1" pageWidth="1169" pageHeight="827" math="0" shadow="0">
      <root>
        <mxCell id="0" />
        <mxCell id="1" parent="0" />
        <mxCell id="0oxHQ4C9Kb4viyRpe7lw-2" value="" style="shape=folder;fontStyle=1;spacingTop=10;tabWidth=60;tabHeight=30;tabPosition=left;html=1;fillColor=#f5f5f5;fontColor=#333333;strokeColor=#666666;" vertex="1" parent="1">
          <mxGeometry x="260" y="170" width="630" height="200" as="geometry" />
        </mxCell>
        <mxCell id="0oxHQ4C9Kb4viyRpe7lw-3" value="&lt;p style=&quot;margin: 0px ; margin-top: 4px ; text-align: center&quot;&gt;&lt;i&gt;&amp;lt;&amp;lt;Interface&amp;gt;&amp;gt;&lt;/i&gt;&lt;br&gt;&lt;b&gt;&lt;font style=&quot;font-size: 20px&quot;&gt;Reader&lt;/font&gt;&lt;/b&gt;&lt;/p&gt;&lt;hr size=&quot;1&quot;&gt;&lt;p style=&quot;margin: 0px 0px 0px 4px ; font-size: 18px&quot;&gt;&lt;font style=&quot;font-size: 18px&quot;&gt;+&amp;nbsp;&lt;/font&gt;&lt;font style=&quot;font-size: 18px&quot;&gt;Read(p []byte) (n int, err error)&lt;/font&gt;&lt;/p&gt;" style="verticalAlign=top;align=left;overflow=fill;fontSize=12;fontFamily=Helvetica;html=1;" vertex="1" parent="1">
          <mxGeometry x="286" y="239" width="270" height="90" as="geometry" />
        </mxCell>
        <mxCell id="0oxHQ4C9Kb4viyRpe7lw-4" value="io" style="text;align=center;fontStyle=1;verticalAlign=middle;spacingLeft=3;spacingRight=3;strokeColor=none;rotatable=0;points=[[0,0.5],[1,0.5]];portConstraint=eastwest;fontSize=22;" vertex="1" parent="1">
          <mxGeometry x="250" y="170" width="80" height="26" as="geometry" />
        </mxCell>
        <mxCell id="0oxHQ4C9Kb4viyRpe7lw-5" value="&lt;p style=&quot;margin: 0px ; margin-top: 4px ; text-align: center&quot;&gt;&lt;i&gt;&amp;lt;&amp;lt;Interface&amp;gt;&amp;gt;&lt;/i&gt;&lt;br&gt;&lt;b&gt;&lt;font style=&quot;font-size: 20px&quot;&gt;Writerer&lt;/font&gt;&lt;/b&gt;&lt;/p&gt;&lt;hr size=&quot;1&quot;&gt;&lt;p style=&quot;margin: 0px 0px 0px 4px ; font-size: 18px&quot;&gt;&lt;font style=&quot;font-size: 18px&quot;&gt;+ Write&lt;/font&gt;&lt;font style=&quot;font-size: 18px&quot;&gt;(p []byte) (n int, err error)&lt;/font&gt;&lt;/p&gt;" style="verticalAlign=top;align=left;overflow=fill;fontSize=12;fontFamily=Helvetica;html=1;" vertex="1" parent="1">
          <mxGeometry x="580" y="239" width="286" height="91" as="geometry" />
        </mxCell>
      </root>
    </mxGraphModel>
  </diagram>
</mxfile>
